<?xml version="1.0" encoding="UTF-8"?>
<svg width="1200pt" height="1200pt" version="1.1" viewBox="0 0 1200 1200" xmlns="http://www.w3.org/2000/svg">
 <g>
  <path d="m731.8 758.89c-3.5508 32.652-36.625 41.148-63.91 40.586-12.254-0.25391-29.965 1.0312-39.539 9.8281-5.3047 4.8711 0.035156 13.402 0.81641 19.367 1.2734 9.707 0.21484 19.715-3.2031 28.895-9.9961 26.941-40.332 36.266-59.699 13.246-9.6133-11.426-15.145-26.074-19.262-40.246-1.4141-4.957-7.957-5.4727-12.156-6.2773-7.9336-1.5859-15.758-3.6602-22.246-8.7734-12.684-9.9961-16.117-25.402-22.094-39.492-6.0586-14.27-25.078-15.562-36-25.883-7.7539-7.332-13.297-18.707-6.8047-28.703 8.3047-12.805 27.926-12.816 41.16-10.715 8.5195 1.3438 15 3.4453 23.352-0.17969 8.5195-3.6953 15.793-9.9102 22.883-15.758 15.539-12.445 30.121-20.34 49.895-24.047 33.48-6.2656 63.672 5.2812 89.293 26.734 6.8164 5.6992 12.684 12.227 20.711 16.32 6.3711 3.2539 13.117 5.6875 19.309 9.3242 13.285 7.8281 19.09 20.449 17.496 35.773-2.5586 23.547 2.8203-27.129 0 0z"/>
  <path d="m807.95 531.23c6.875-46.621 18.047-92.809 28.453-138.72 13.32-58.812 27.277-117.49 41.93-175.99 7.5469-30.156 15.18-60.359 24.996-89.867 5.0898-15.301 10.355-31.754 19.57-45.168 4.1055-5.9648 8.6641-10.176 16.234-8.7227 7.6445 1.4648 16.078 3.1445 18.562 11.449 2.1016 7.0078 1.7383 14.785 1.2852 21.984-3.1094 47.352-17.809 94.309-29.746 139.99-12.613 48.301-25.668 96.469-39.145 144.53-11.734 41.879-23.578 83.773-36.926 125.16-4.9219 15.301-14.496 32.594-8.293 48.684 4.5469 11.82 15.348 16.223 23.375 25.043 8.2695 9.0859 12.348 20.629 13.633 32.688 0.011719 0.011719 0.023438 0.035156 0.035156 0.046875 0.61328 5.8203 0.68359 12.121 0.12109 18.973-3.0859 2.3516-5.375 5.0508-7.4297 8.3164-16.285-10.691-38.496-17.281-57.336-9.4688-11.988-11.195-28.824-18.926-45.516-17.16-3.2891 0.34766-6.5391 1.1055-9.6016 2.3633-4.7891 1.9688-8.543-1.7031-13.547-3.1094-9.625-2.7227-19.98-2.8086-29.746-0.76953 3.6367-12.086 7.7891-21.707 12.238-29.508h0.011719c8.6641-15.359 21.695-27.742 39.492-31.152 17.785-3.4297 34.25-8.8047 37.348-29.59 8.4453-57.336-2.3164 15.48 0 0zm-630.02 255.31c-8.7852-108.31 78.973-192.32 168.52-236.7 123.79-61.367 274.56-71.195 407.46-37.055 14.16 3.6367 28.188 7.8242 42.023 12.562-4.6914 25.738-26.746 19.273-45.695 29.113-9.3477-6.4805-19.105-11.914-29.723-16.043-5.3633-2.0742-10.715-2.543-14.387-6.9961-3.9609-4.7891-8.8906-8.7461-14.363-11.688-18.145-9.6719-46.152-7.6094-54.469 14.184-20.652-9.3008-43.598-9.4922-58.188-0.57422-18.613-13.02-55.633-19.934-67.586 5.7852-13.043-3.0469-26.594-4.043-39.961-3.3477-7.4414 0.38281-14.867 1.3086-22.141 2.8789-6.6133-3.3359-14.016-5.0039-21.406-5.0039-20.496 0-44.293 15.059-41.363 38.137-23.074 1.5703-42.758 11.82-51.613 26.879-18.938-2.3164-42.781 3.875-52.98 21.406-3.1211 5.375-18.852 7.7539-25.066 12.121-9.9102 6.9609-18.035 16.801-22.824 27.938-1.9688 4.5977-3.3711 9.4453-3.9844 14.41-0.9375 7.6797-1.2734 7.2227-7.6211 12-10.488 7.8945-19.176 18.324-25.117 30.035-9.3008 18.359-12.492 43.754 4.4531 58.801-6.5508 14.965-4.6445 34.945 10.453 44.074-3.168 33.336 6.1211 86.914 39.613 104.09-0.30078 2.1484-0.20312 4.2969 0.30078 6.4219-43.301-41.188-70.219-90.34-74.332-143.43-0.38672-4.7383 4.1133 53.09 0 0zm422.82 327.86c-110.45 0-222.02-47.855-302.79-118 91.164 56.543 201 80.449 307.45 79.715 107.21-0.74219 217.8-26.676 308.1-86.113-80.867 73.84-196.18 124.39-312.77 124.39zm347.54-223.45-16.633-4.0664c9.6836 13.68 22.801 29.27 13.57 46.789-85.656 78.758-207.72 112.46-321.73 116.47-120.13 4.2109-249.61-23.496-346.08-98.531-2.7969-6.793-8.543-11.914-11.438-18.527-2.6992-6.1914-0.51562-11.746 1.3086-17.734l-6.2031-1.8359c-14.496-4.2852-23.293-22.668-28.105-35.496-7.9453-21.156-10.031-43.922-6.8164-66.203-20.461-8.1133-14.902-25.066-7.8594-41.473-37.738-21.035-0.78125-68.242 25.332-81.684-5.1602-27.336 18.863-54.469 46.488-53.34l1.2617-4.8242c5.375-20.543 34.895-20.734 51.121-17.594l1.9922-4.7539c9.5508-22.848 39.758-24.012 60.637-23.387-4.7148-10.285-9.5391-20.34 0.046875-29.785 11.125-10.957 29.617-10.738 42.254-2.7461 24.684-5.9531 49.105-4.2734 73.309 2.7227 2.2188-11.941 6.7812-19.066 20.039-20.051 14.723-1.1055 27.18 5.6523 38.23 14.555l3.9844-3.2656c19.02-15.516 46.547-2.4609 64.477 7.9688 0.70703-11.34 1.1406-22.285 14.148-26.062 15.121-4.3906 31.078 4.043 38.555 17.27 13.703 3.5742 26.746 9 38.723 16.621-23.461 19.586-31.512 51.266-38.363 79.656 20.125-8.1719 39.805-13.859 58.738 0.76953l3.9609-3.0703c16.094-12.961 40.883 4.3906 51.445 16.633l4.4883-2.5547c21-12.434 46.414 4.7891 62.449 17.664 2.0898-9.5625 3.3125-17.258 12.539-22.523 0.82812-5.8789 1.1055-11.879 1.0312-17.809 8.2695 5.2695 13.273 12.301 16.211 21.457 14.016-1.8594 28.465-1.2852 40.441 7.2617 13.465 9.6016 11.184 21.938 0.070313 31.957 18.562 23.746 32.762 54.973 28.668 85.812 15.742 23.93 23.734 68.746-13.715 73.824 3.0938 13.996 5.2148 45.832-18.578 39.883zm9.4648 13.043c19.727-3.3242 26.23-25.309 24.18-42.648 29.004-9.8398 28.262-48.84 19.379-72.168-3.3125-8.6992-7.1055-13.68-7.1992-23.027-0.097656-8.6992-1.4023-17.363-3.5039-25.789-4.2734-17.062-11.734-33.516-21.863-47.902 24.109-31.895-22.738-55.727-48.973-54.035-4.1172-7.9062-10.945-14.125-18.469-18.758-6.7188-4.1406-7.1172-4.0664-9.168-11.688-1.2852-4.7891-3.0352-9.4688-5.3047-13.883-3.8984-7.5469-9.3125-14.219-15.84-19.668-8.1836-6.8516-16.5-12.035-15.121-24.254 66.359 33.109 129.89 84.816 156.32 156.27 27.926 75.492 2.543 154.63-51.18 211.74-0.36719-4.7383-1.4492-9.5391-3.2617-14.184 2.0781-0.34766 1.8125 4.6445 0 0zm56.234-250.43c-35.566-56.688-91.234-98.543-150.62-127.71 28.789-88.176 52.344-178.39 76.008-268.11 11.902-45.301 25.211-90.996 31.105-137.57 2.9414-23.426 5.5078-51.18-22.656-58.488l-1.5352 6.2773 0.12109-6.6602c-21.887-5.6289-32.762 7.9336-41.594 26.363-19.715 40.559-29.051 86.508-39.938 129.89-23.426 93.672-46.57 187.74-64.5 282.56-134.24-45.168-287.81-43.379-420.39 7.4297-95.988 36.852-194 106.99-221.4 211.55-29.051 111.47 37.5 222.8 118.38 294.47 96.875 85.871 229.45 135.66 359.23 125.03 127.21-10.5 252.62-74.734 334.79-172.51 73.848-88.176 107.89-209.49 43.008-312.52z"/>
 </g>
</svg>
