<svg data-v-fde0c5aa="" xmlns="http://www.w3.org/2000/svg" viewBox="0 0 300 300" class="iconLeft"><!----><defs data-v-fde0c5aa=""><!----></defs><rect data-v-fde0c5aa="" fill="transparent" x="0" y="0" width="300px" height="300px" class="logo-background-square"></rect><defs data-v-fde0c5aa=""><!----></defs><g data-v-fde0c5aa="" id="58ff165b-2503-4592-a27e-9db098aa4875" fill="#000000" transform="matrix(2.4380407835093285,0,0,2.4380407835093285,86.9234930385794,127.21650880835242)"><path d="M5.23 3.47L5.23 3.47L5.23 3.47Q6.26 3.47 7.10 3.80L7.10 3.80L7.10 3.80Q7.94 4.14 8.52 4.74L8.52 4.74L8.52 4.74Q9.11 5.34 9.42 6.18L9.42 6.18L9.42 6.18Q9.74 7.02 9.74 8.05L9.74 8.05L9.74 8.05Q9.74 9.06 9.43 9.91L9.43 9.91L9.43 9.91Q9.11 10.75 8.53 11.35L8.53 11.35L8.53 11.35Q7.95 11.96 7.12 12.29L7.12 12.29L7.12 12.29Q6.30 12.63 5.28 12.63L5.28 12.63L5.28 12.63Q4.22 12.63 3.37 12.30L3.37 12.30L3.37 12.30Q2.53 11.97 1.94 11.37L1.94 11.37L1.94 11.37Q1.35 10.77 1.03 9.93L1.03 9.93L1.03 9.93Q0.72 9.08 0.72 8.05L0.72 8.05L0.72 8.05Q0.72 7.02 1.03 6.18L1.03 6.18L1.03 6.18Q1.35 5.33 1.93 4.73L1.93 4.73L1.93 4.73Q2.52 4.14 3.35 3.80L3.35 3.80L3.35 3.80Q4.19 3.47 5.23 3.47ZM5.22 4.25L5.22 4.25L5.22 4.25Q4.48 4.25 3.90 4.51L3.90 4.51L3.90 4.51Q3.31 4.78 2.90 5.27L2.90 5.27L2.90 5.27Q2.50 5.76 2.28 6.47L2.28 6.47L2.28 6.47Q2.06 7.17 2.06 8.04L2.06 8.04L2.06 8.04Q2.06 8.91 2.28 9.62L2.28 9.62L2.28 9.62Q2.50 10.32 2.91 10.81L2.91 10.81L2.91 10.81Q3.32 11.31 3.90 11.57L3.90 11.57L3.90 11.57Q4.49 11.83 5.22 11.83L5.22 11.83L5.22 11.83Q5.96 11.83 6.55 11.57L6.55 11.57L6.55 11.57Q7.13 11.31 7.54 10.81L7.54 10.81L7.54 10.81Q7.95 10.32 8.17 9.62L8.17 9.62L8.17 9.62Q8.39 8.92 8.39 8.05L8.39 8.05L8.39 8.05Q8.39 7.16 8.17 6.46L8.17 6.46L8.17 6.46Q7.95 5.76 7.54 5.26L7.54 5.26L7.54 5.26Q7.13 4.77 6.55 4.51L6.55 4.51L6.55 4.51Q5.96 4.25 5.22 4.25ZM14.76 6.95L14.76 6.95L14.76 6.95Q14.29 6.95 13.91 7.12L13.91 7.12L13.91 7.12Q13.53 7.29 13.27 7.61L13.27 7.61L13.27 7.61Q13.00 7.92 12.86 8.38L12.86 8.38L12.86 8.38Q12.71 8.83 12.71 9.39L12.71 9.39L12.71 9.39Q12.71 9.97 12.86 10.43L12.86 10.43L12.86 10.43Q13.01 10.90 13.28 11.21L13.28 11.21L13.28 11.21Q13.55 11.53 13.94 11.71L13.94 11.71L13.94 11.71Q14.32 11.89 14.80 11.89L14.80 11.89L14.80 11.89Q15.28 11.89 15.66 11.72L15.66 11.72L15.66 11.72Q16.04 11.55 16.31 11.23L16.31 11.23L16.31 11.23Q16.58 10.92 16.73 10.46L16.73 10.46L16.73 10.46Q16.87 9.99 16.87 9.41L16.87 9.41L16.87 9.41Q16.87 8.84 16.72 8.38L16.72 8.38L16.72 8.38Q16.58 7.93 16.30 7.61L16.30 7.61L16.30 7.61Q16.03 7.29 15.64 7.12L15.64 7.12L15.64 7.12Q15.24 6.95 14.76 6.95ZM10.60 15.22L10.60 14.61L10.60 14.61Q10.97 14.60 11.18 14.58L11.18 14.58L11.18 14.58Q11.39 14.55 11.49 14.50L11.49 14.50L11.49 14.50Q11.59 14.45 11.61 14.38L11.61 14.38L11.61 14.38Q11.63 14.30 11.63 14.18L11.63 14.18L11.63 7.24L11.63 7.24Q11.63 7.13 11.57 7.07L11.57 7.07L11.57 7.07Q11.51 7.01 11.40 6.99L11.40 6.99L11.40 6.99Q11.28 6.97 11.09 6.96L11.09 6.96L11.09 6.96Q10.91 6.95 10.66 6.95L10.66 6.95L10.66 6.34L10.66 6.34Q11.19 6.34 11.70 6.34L11.70 6.34L11.70 6.34Q12.20 6.34 12.71 6.31L12.71 6.31L12.73 7.44L12.73 7.44Q13.08 6.86 13.68 6.53L13.68 6.53L13.68 6.53Q14.28 6.21 15.07 6.21L15.07 6.21L15.07 6.21Q15.73 6.21 16.28 6.44L16.28 6.44L16.28 6.44Q16.82 6.67 17.21 7.08L17.21 7.08L17.21 7.08Q17.60 7.50 17.82 8.08L17.82 8.08L17.82 8.08Q18.03 8.65 18.03 9.36L18.03 9.36L18.03 9.36Q18.03 10.10 17.82 10.69L17.82 10.69L17.82 10.69Q17.60 11.28 17.21 11.71L17.21 11.71L17.21 11.71Q16.82 12.14 16.27 12.37L16.27 12.37L16.27 12.37Q15.72 12.61 15.05 12.61L15.05 12.61L15.05 12.61Q14.30 12.61 13.73 12.33L13.73 12.33L13.73 12.33Q13.17 12.04 12.79 11.51L12.79 11.51L12.78 14.21L12.78 14.21Q12.78 14.36 12.82 14.44L12.82 14.44L12.82 14.44Q12.86 14.52 12.96 14.56L12.96 14.56L12.96 14.56Q13.06 14.59 13.24 14.60L13.24 14.60L13.24 14.60Q13.41 14.61 13.67 14.61L13.67 14.61L13.91 14.61L13.91 15.22L13.91 15.22Q13.85 15.22 13.71 15.22L13.71 15.22L13.71 15.22Q13.56 15.22 13.38 15.22L13.38 15.22L13.38 15.22Q13.21 15.22 13.02 15.22L13.02 15.22L13.02 15.22Q12.82 15.22 12.66 15.22L12.66 15.22L12.66 15.22Q12.49 15.22 12.37 15.22L12.37 15.22L12.37 15.22Q12.26 15.22 12.23 15.22L12.23 15.22L12.23 15.22Q12.20 15.22 12.09 15.22L12.09 15.22L12.09 15.22Q11.97 15.22 11.81 15.22L11.81 15.22L11.81 15.22Q11.65 15.22 11.46 15.22L11.46 15.22L11.46 15.22Q11.27 15.22 11.10 15.22L11.10 15.22L11.10 15.22Q10.92 15.22 10.79 15.22L10.79 15.22L10.79 15.22Q10.65 15.22 10.60 15.22L10.60 15.22ZM29.16 10.08L29.16 10.08L29.16 10.08Q29.26 10.53 29.35 10.86L29.35 10.86L29.35 10.86Q29.44 11.18 29.54 11.39L29.54 11.39L29.54 11.39Q29.64 11.60 29.77 11.70L29.77 11.70L29.77 11.70Q29.90 11.81 30.09 11.81L30.09 11.81L30.09 11.81Q30.19 11.81 30.30 11.78L30.30 11.78L30.30 11.78Q30.40 11.76 30.48 11.69L30.48 11.69L30.48 11.69Q30.56 11.61 30.61 11.48L30.61 11.48L30.61 11.48Q30.67 11.35 30.67 11.15L30.67 11.15L31.36 11.09L31.36 11.09Q31.36 11.80 30.97 12.21L30.97 12.21L30.97 12.21Q30.58 12.63 29.87 12.63L29.87 12.63L29.87 12.63Q29.37 12.63 29.05 12.42L29.05 12.42L29.05 12.42Q28.72 12.22 28.51 11.85L28.51 11.85L28.51 11.85Q28.29 11.48 28.13 10.96L28.13 10.96L28.13 10.96Q27.97 10.45 27.79 9.83L27.79 9.83L27.79 9.83Q27.67 9.39 27.47 9.04L27.47 9.04L27.47 9.04Q27.26 8.69 27.07 8.41L27.07 8.41L27.07 8.41Q26.87 8.33 26.59 8.30L26.59 8.30L26.59 8.30Q26.32 8.26 25.97 8.26L25.97 8.26L25.07 8.26L25.07 11.43L25.07 11.43Q25.07 11.57 25.11 11.64L25.11 11.64L25.11 11.64Q25.15 11.71 25.25 11.74L25.25 11.74L25.25 11.74Q25.35 11.77 25.52 11.78L25.52 11.78L25.52 11.78Q25.68 11.79 25.93 11.79L25.93 11.79L26.28 11.79L26.28 12.46L26.28 12.46Q26.08 12.46 25.88 12.46L25.88 12.46L25.88 12.46Q25.68 12.46 25.47 12.46L25.47 12.46L25.47 12.46Q25.27 12.46 25.03 12.46L25.03 12.46L25.03 12.46Q24.79 12.46 24.51 12.45L24.51 12.45L24.51 12.45Q24.21 12.45 23.95 12.45L23.95 12.45L23.95 12.45Q23.69 12.46 23.46 12.46L23.46 12.46L23.46 12.46Q23.23 12.46 23.01 12.46L23.01 12.46L23.01 12.46Q22.79 12.46 22.57 12.46L22.57 12.46L22.57 11.79L22.91 11.79L22.91 11.79Q23.26 11.79 23.44 11.76L23.44 11.76L23.44 11.76Q23.63 11.73 23.71 11.68L23.71 11.68L23.71 11.68Q23.80 11.62 23.81 11.54L23.81 11.54L23.81 11.54Q23.82 11.46 23.82 11.35L23.82 11.35L23.82 4.76L23.82 4.76Q23.82 4.60 23.80 4.51L23.80 4.51L23.80 4.51Q23.77 4.42 23.65 4.38L23.65 4.38L23.65 4.38Q23.52 4.34 23.27 4.33L23.27 4.33L23.27 4.33Q23.02 4.32 22.57 4.32L22.57 4.32L22.57 3.64L26.34 3.64L26.34 3.64Q27.08 3.64 27.73 3.74L27.73 3.74L27.73 3.74Q28.38 3.83 28.85 4.08L28.85 4.08L28.85 4.08Q29.32 4.33 29.59 4.77L29.59 4.77L29.59 4.77Q29.86 5.22 29.86 5.91L29.86 5.91L29.86 5.91Q29.86 6.73 29.36 7.28L29.36 7.28L29.36 7.28Q28.85 7.83 27.92 8.03L27.92 8.03L27.92 8.03Q28.13 8.18 28.31 8.36L28.31 8.36L28.31 8.36Q28.49 8.53 28.64 8.77L28.64 8.77L28.64 8.77Q28.80 9.00 28.93 9.32L28.93 9.32L28.93 9.32Q29.05 9.64 29.16 10.08ZM25.07 4.38L25.07 7.60L26.56 7.60L26.56 7.60Q27.11 7.60 27.50 7.51L27.50 7.51L27.50 7.51Q27.90 7.42 28.14 7.23L28.14 7.23L28.14 7.23Q28.39 7.04 28.51 6.73L28.51 6.73L28.51 6.73Q28.62 6.43 28.62 5.99L28.62 5.99L28.62 5.99Q28.62 5.49 28.46 5.17L28.46 5.17L28.46 5.17Q28.29 4.86 27.98 4.69L27.98 4.69L27.98 4.69Q27.66 4.51 27.19 4.45L27.19 4.45L27.19 4.45Q26.73 4.38 26.13 4.38L26.13 4.38L25.07 4.38ZM38.31 9.49L37.90 9.61L33.06 9.61L33.06 9.61Q33.07 10.16 33.23 10.58L33.23 10.58L33.23 10.58Q33.39 10.99 33.69 11.28L33.69 11.28L33.69 11.28Q34.00 11.57 34.42 11.73L34.42 11.73L34.42 11.73Q34.84 11.89 35.35 11.89L35.35 11.89L35.35 11.89Q36.07 11.89 36.59 11.59L36.59 11.59L36.59 11.59Q37.12 11.30 37.41 10.68L37.41 10.68L38.23 10.81L38.23 10.81Q37.92 11.68 37.13 12.14L37.13 12.14L37.13 12.14Q36.34 12.61 35.19 12.61L35.19 12.61L35.19 12.61Q34.42 12.61 33.80 12.37L33.80 12.37L33.80 12.37Q33.19 12.14 32.76 11.72L32.76 11.72L32.76 11.72Q32.33 11.29 32.11 10.72L32.11 10.72L32.11 10.72Q31.88 10.15 31.88 9.42L31.88 9.42L31.88 9.42Q31.88 8.68 32.12 8.09L32.12 8.09L32.12 8.09Q32.35 7.50 32.77 7.08L32.77 7.08L32.77 7.08Q33.20 6.65 33.79 6.42L33.79 6.42L33.79 6.42Q34.39 6.19 35.12 6.19L35.12 6.19L35.12 6.19Q35.86 6.19 36.45 6.41L36.45 6.41L36.45 6.41Q37.04 6.63 37.45 7.05L37.45 7.05L37.45 7.05Q37.86 7.48 38.08 8.09L38.08 8.09L38.08 8.09Q38.30 8.70 38.31 9.49L38.31 9.49ZM33.07 9.00L37.20 9.00L37.20 9.00Q37.12 7.96 36.59 7.43L36.59 7.43L36.59 7.43Q36.05 6.90 35.14 6.90L35.14 6.90L35.14 6.90Q34.71 6.90 34.35 7.04L34.35 7.04L34.35 7.04Q34.00 7.19 33.73 7.45L33.73 7.45L33.73 7.45Q33.46 7.72 33.29 8.10L33.29 8.10L33.29 8.10Q33.13 8.48 33.07 9.00L33.07 9.00ZM45.08 6.39L45.08 8.52L44.41 8.52L44.41 8.52Q44.37 7.70 43.92 7.30L43.92 7.30L43.92 7.30Q43.46 6.90 42.66 6.90L42.66 6.90L42.66 6.90Q42.18 6.90 41.79 7.07L41.79 7.07L41.79 7.07Q41.41 7.25 41.15 7.57L41.15 7.57L41.15 7.57Q40.89 7.89 40.75 8.35L40.75 8.35L40.75 8.35Q40.61 8.82 40.61 9.40L40.61 9.40L40.61 9.40Q40.61 9.99 40.75 10.43L40.75 10.43L40.75 10.43Q40.89 10.87 41.16 11.20L41.16 11.20L41.16 11.20Q41.43 11.53 41.82 11.71L41.82 11.71L41.82 11.71Q42.20 11.89 42.68 11.89L42.68 11.89L42.68 11.89Q43.36 11.89 43.82 11.55L43.82 11.55L43.82 11.55Q44.28 11.22 44.47 10.55L44.47 10.55L45.27 10.68L45.27 10.68Q45.16 11.16 44.92 11.52L44.92 11.52L44.92 11.52Q44.69 11.89 44.34 12.11L44.34 12.11L44.34 12.11Q43.99 12.34 43.54 12.47L43.54 12.47L43.54 12.47Q43.09 12.61 42.55 12.61L42.55 12.61L42.55 12.61Q41.83 12.61 41.25 12.38L41.25 12.38L41.25 12.38Q40.67 12.15 40.26 11.75L40.26 11.75L40.26 11.75Q39.85 11.35 39.62 10.76L39.62 10.76L39.62 10.76Q39.40 10.17 39.40 9.45L39.40 9.45L39.40 9.45Q39.40 8.76 39.61 8.17L39.61 8.17L39.61 8.17Q39.83 7.58 40.23 7.14L40.23 7.14L40.23 7.14Q40.63 6.71 41.18 6.45L41.18 6.45L41.18 6.45Q41.73 6.19 42.40 6.19L42.40 6.19L42.40 6.19Q42.68 6.19 42.94 6.22L42.94 6.22L42.94 6.22Q43.21 6.25 43.45 6.34L43.45 6.34L43.45 6.34Q43.70 6.42 43.90 6.56L43.90 6.56L43.90 6.56Q44.11 6.71 44.28 6.92L44.28 6.92L44.45 6.38L44.45 6.38Q44.47 6.38 44.57 6.38L44.57 6.38L44.57 6.38Q44.66 6.38 44.76 6.38L44.76 6.38L44.76 6.38Q44.86 6.38 44.96 6.39L44.96 6.39L44.96 6.39Q45.05 6.39 45.08 6.39L45.08 6.39ZM47.58 3.47L47.58 3.47L47.58 3.47Q47.93 3.47 48.13 3.64L48.13 3.64L48.13 3.64Q48.32 3.81 48.32 4.10L48.32 4.10L48.32 4.10Q48.32 4.40 48.13 4.58L48.13 4.58L48.13 4.58Q47.93 4.75 47.58 4.75L47.58 4.75L47.58 4.75Q47.24 4.75 47.05 4.58L47.05 4.58L47.05 4.58Q46.86 4.41 46.86 4.10L46.86 4.10L46.86 4.10Q46.86 3.81 47.05 3.64L47.05 3.64L47.05 3.64Q47.24 3.47 47.58 3.47ZM48.30 6.31L48.30 11.40L48.30 11.40Q48.30 11.56 48.36 11.65L48.36 11.65L48.36 11.65Q48.41 11.74 48.54 11.79L48.54 11.79L48.54 11.79Q48.66 11.83 48.85 11.84L48.85 11.84L48.85 11.84Q49.05 11.85 49.33 11.85L49.33 11.85L49.33 12.46L49.33 12.46Q49.15 12.46 48.85 12.46L48.85 12.46L48.85 12.46Q48.55 12.46 48.25 12.46L48.25 12.46L48.25 12.46Q47.95 12.46 47.71 12.45L47.71 12.45L47.71 12.45Q47.48 12.45 47.44 12.45L47.44 12.45L47.44 12.45Q47.05 12.45 46.75 12.46L46.75 12.46L46.75 12.46Q46.46 12.46 46.14 12.46L46.14 12.46L46.14 11.85L46.14 11.85Q46.51 11.85 46.72 11.83L46.72 11.83L46.72 11.83Q46.92 11.81 47.02 11.76L47.02 11.76L47.02 11.76Q47.12 11.72 47.14 11.63L47.14 11.63L47.14 11.63Q47.15 11.55 47.15 11.41L47.15 11.41L47.15 7.20L47.15 7.20Q47.15 7.10 47.10 7.05L47.10 7.05L47.10 7.05Q47.05 7.01 46.94 6.98L46.94 6.98L46.94 6.98Q46.82 6.96 46.63 6.96L46.63 6.96L46.63 6.96Q46.44 6.95 46.18 6.95L46.18 6.95L46.18 6.34L46.18 6.34Q46.76 6.34 47.27 6.34L47.27 6.34L47.27 6.34Q47.78 6.33 48.30 6.31L48.30 6.31ZM53.89 6.95L53.89 6.95L53.89 6.95Q53.42 6.95 53.04 7.12L53.04 7.12L53.04 7.12Q52.66 7.29 52.39 7.61L52.39 7.61L52.39 7.61Q52.13 7.92 51.99 8.38L51.99 8.38L51.99 8.38Q51.84 8.83 51.84 9.39L51.84 9.39L51.84 9.39Q51.84 9.97 51.99 10.43L51.99 10.43L51.99 10.43Q52.14 10.90 52.41 11.21L52.41 11.21L52.41 11.21Q52.68 11.53 53.06 11.71L53.06 11.71L53.06 11.71Q53.45 11.89 53.93 11.89L53.93 11.89L53.93 11.89Q54.41 11.89 54.79 11.72L54.79 11.72L54.79 11.72Q55.17 11.55 55.44 11.23L55.44 11.23L55.44 11.23Q55.71 10.92 55.86 10.46L55.86 10.46L55.86 10.46Q56 9.99 56 9.41L56 9.41L56 9.41Q56 8.84 55.85 8.38L55.85 8.38L55.85 8.38Q55.71 7.93 55.43 7.61L55.43 7.61L55.43 7.61Q55.16 7.29 54.77 7.12L54.77 7.12L54.77 7.12Q54.37 6.95 53.89 6.95ZM49.72 15.22L49.72 14.61L49.72 14.61Q50.10 14.60 50.31 14.58L50.31 14.58L50.31 14.58Q50.52 14.55 50.62 14.50L50.62 14.50L50.62 14.50Q50.72 14.45 50.74 14.38L50.74 14.38L50.74 14.38Q50.76 14.30 50.76 14.18L50.76 14.18L50.76 7.24L50.76 7.24Q50.76 7.13 50.70 7.07L50.70 7.07L50.70 7.07Q50.64 7.01 50.52 6.99L50.52 6.99L50.52 6.99Q50.41 6.97 50.22 6.96L50.22 6.96L50.22 6.96Q50.04 6.95 49.79 6.95L49.79 6.95L49.79 6.34L49.79 6.34Q50.32 6.34 50.83 6.34L50.83 6.34L50.83 6.34Q51.33 6.34 51.84 6.31L51.84 6.31L51.86 7.44L51.86 7.44Q52.21 6.86 52.81 6.53L52.81 6.53L52.81 6.53Q53.41 6.21 54.20 6.21L54.20 6.21L54.20 6.21Q54.86 6.21 55.41 6.44L55.41 6.44L55.41 6.44Q55.95 6.67 56.34 7.08L56.34 7.08L56.34 7.08Q56.73 7.50 56.95 8.08L56.95 8.08L56.95 8.08Q57.16 8.65 57.16 9.36L57.16 9.36L57.16 9.36Q57.16 10.10 56.95 10.69L56.95 10.69L56.95 10.69Q56.73 11.28 56.34 11.71L56.34 11.71L56.34 11.71Q55.95 12.14 55.40 12.37L55.40 12.37L55.40 12.37Q54.85 12.61 54.18 12.61L54.18 12.61L54.18 12.61Q53.43 12.61 52.86 12.33L52.86 12.33L52.86 12.33Q52.29 12.04 51.92 11.51L51.92 11.51L51.91 14.21L51.91 14.21Q51.91 14.36 51.95 14.44L51.95 14.44L51.95 14.44Q51.99 14.52 52.09 14.56L52.09 14.56L52.09 14.56Q52.19 14.59 52.37 14.60L52.37 14.60L52.37 14.60Q52.54 14.61 52.80 14.61L52.80 14.61L53.04 14.61L53.04 15.22L53.04 15.22Q52.98 15.22 52.83 15.22L52.83 15.22L52.83 15.22Q52.69 15.22 52.51 15.22L52.51 15.22L52.51 15.22Q52.34 15.22 52.14 15.22L52.14 15.22L52.14 15.22Q51.95 15.22 51.79 15.22L51.79 15.22L51.79 15.22Q51.62 15.22 51.50 15.22L51.50 15.22L51.50 15.22Q51.39 15.22 51.36 15.22L51.36 15.22L51.36 15.22Q51.33 15.22 51.21 15.22L51.21 15.22L51.21 15.22Q51.10 15.22 50.94 15.22L50.94 15.22L50.94 15.22Q50.78 15.22 50.59 15.22L50.59 15.22L50.59 15.22Q50.40 15.22 50.23 15.22L50.23 15.22L50.23 15.22Q50.05 15.22 49.92 15.22L49.92 15.22L49.92 15.22Q49.78 15.22 49.72 15.22L49.72 15.22ZM64.72 9.49L64.31 9.61L59.47 9.61L59.47 9.61Q59.47 10.16 59.64 10.58L59.64 10.58L59.64 10.58Q59.80 10.99 60.10 11.28L60.10 11.28L60.10 11.28Q60.40 11.57 60.82 11.73L60.82 11.73L60.82 11.73Q61.24 11.89 61.76 11.89L61.76 11.89L61.76 11.89Q62.47 11.89 63 11.59L63 11.59L63 11.59Q63.53 11.30 63.81 10.68L63.81 10.68L64.64 10.81L64.64 10.81Q64.33 11.68 63.54 12.14L63.54 12.14L63.54 12.14Q62.75 12.61 61.60 12.61L61.60 12.61L61.60 12.61Q60.83 12.61 60.21 12.37L60.21 12.37L60.21 12.37Q59.60 12.14 59.17 11.72L59.17 11.72L59.17 11.72Q58.74 11.29 58.52 10.72L58.52 10.72L58.52 10.72Q58.29 10.15 58.29 9.42L58.29 9.42L58.29 9.42Q58.29 8.68 58.52 8.09L58.52 8.09L58.52 8.09Q58.75 7.50 59.18 7.08L59.18 7.08L59.18 7.08Q59.60 6.65 60.20 6.42L60.20 6.42L60.20 6.42Q60.80 6.19 61.53 6.19L61.53 6.19L61.53 6.19Q62.27 6.19 62.86 6.41L62.86 6.41L62.86 6.41Q63.44 6.63 63.85 7.05L63.85 7.05L63.85 7.05Q64.26 7.48 64.49 8.09L64.49 8.09L64.49 8.09Q64.71 8.70 64.72 9.49L64.72 9.49ZM59.47 9.00L63.61 9.00L63.61 9.00Q63.53 7.96 62.99 7.43L62.99 7.43L62.99 7.43Q62.46 6.90 61.54 6.90L61.54 6.90L61.54 6.90Q61.11 6.90 60.76 7.04L60.76 7.04L60.76 7.04Q60.40 7.19 60.14 7.45L60.14 7.45L60.14 7.45Q59.87 7.72 59.70 8.10L59.70 8.10L59.70 8.10Q59.53 8.48 59.47 9.00L59.47 9.00ZM70.72 6.34L70.72 8.24L70.08 8.24L70.08 8.24Q70.05 7.55 69.62 7.18L69.62 7.18L69.62 7.18Q69.19 6.81 68.39 6.81L68.39 6.81L68.39 6.81Q68.04 6.81 67.79 6.89L67.79 6.89L67.79 6.89Q67.54 6.97 67.37 7.11L67.37 7.11L67.37 7.11Q67.20 7.25 67.12 7.43L67.12 7.43L67.12 7.43Q67.03 7.61 67.03 7.80L67.03 7.80L67.03 7.80Q67.03 8.01 67.15 8.17L67.15 8.17L67.15 8.17Q67.26 8.33 67.46 8.46L67.46 8.46L67.46 8.46Q67.67 8.58 67.95 8.67L67.95 8.67L67.95 8.67Q68.24 8.77 68.58 8.86L68.58 8.86L68.58 8.86Q69.13 9.00 69.58 9.16L69.58 9.16L69.58 9.16Q70.03 9.32 70.34 9.53L70.34 9.53L70.34 9.53Q70.65 9.75 70.82 10.05L70.82 10.05L70.82 10.05Q70.99 10.36 70.99 10.80L70.99 10.80L70.99 10.80Q70.99 11.24 70.81 11.57L70.81 11.57L70.81 11.57Q70.64 11.91 70.31 12.14L70.31 12.14L70.31 12.14Q69.99 12.37 69.53 12.49L69.53 12.49L69.53 12.49Q69.07 12.61 68.51 12.61L68.51 12.61L68.51 12.61Q67.80 12.61 67.33 12.43L67.33 12.43L67.33 12.43Q66.86 12.26 66.55 11.89L66.55 11.89L66.49 12.46L66.49 12.46Q66.33 12.46 66.19 12.45L66.19 12.45L66.19 12.45Q66.04 12.45 65.88 12.46L65.88 12.46L65.88 10.43L66.55 10.43L66.55 10.43Q66.59 11.22 67.06 11.59L67.06 11.59L67.06 11.59Q67.53 11.96 68.35 11.96L68.35 11.96L68.35 11.96Q68.70 11.96 68.99 11.88L68.99 11.88L68.99 11.88Q69.28 11.81 69.49 11.69L69.49 11.69L69.49 11.69Q69.69 11.57 69.81 11.39L69.81 11.39L69.81 11.39Q69.92 11.21 69.92 10.96L69.92 10.96L69.92 10.96Q69.92 10.70 69.76 10.51L69.76 10.51L69.76 10.51Q69.60 10.33 69.33 10.19L69.33 10.19L69.33 10.19Q69.06 10.05 68.70 9.94L68.70 9.94L68.70 9.94Q68.35 9.84 67.95 9.72L67.95 9.72L67.95 9.72Q67.46 9.57 67.10 9.41L67.10 9.41L67.10 9.41Q66.73 9.25 66.49 9.04L66.49 9.04L66.49 9.04Q66.24 8.84 66.12 8.57L66.12 8.57L66.12 8.57Q65.99 8.29 65.99 7.92L65.99 7.92L65.99 7.92Q65.99 7.57 66.15 7.25L66.15 7.25L66.15 7.25Q66.30 6.94 66.59 6.70L66.59 6.70L66.59 6.70Q66.88 6.45 67.28 6.32L67.28 6.32L67.28 6.32Q67.69 6.19 68.20 6.19L68.20 6.19L68.20 6.19Q68.76 6.19 69.25 6.35L69.25 6.35L69.25 6.35Q69.75 6.51 70.06 6.83L70.06 6.83L70.06 6.83Q70.06 6.82 70.09 6.75L70.09 6.75L70.09 6.75Q70.11 6.68 70.14 6.59L70.14 6.59L70.14 6.59Q70.16 6.49 70.21 6.34L70.21 6.34L70.21 6.34Q70.33 6.35 70.44 6.35L70.44 6.35L70.44 6.35Q70.53 6.35 70.61 6.35L70.61 6.35L70.61 6.35Q70.69 6.34 70.72 6.34L70.72 6.34Z"></path></g><defs data-v-fde0c5aa=""><linearGradient data-v-fde0c5aa="" gradientTransform="rotate(25)" id="9c7bc4f2-2bb0-4d70-933d-8e2db580278b" x1="0%" y1="0%" x2="100%" y2="0%"><stop data-v-fde0c5aa="" offset="0%" stop-color="#041804" stop-opacity="1"></stop><stop data-v-fde0c5aa="" offset="100%" stop-opacity="1"></stop></linearGradient></defs><g data-v-fde0c5aa="" id="ffc975db-798e-4777-8986-a141245bda28" stroke="none" fill="url(#9c7bc4f2-2bb0-4d70-933d-8e2db580278b)" transform="matrix(0.4774517580897687,0,0,0.4774517580897687,-85.89727364504415,-38.29530665407211)"><path d="M312.033 407.615c-.296 2.721-3.052 3.429-5.326 3.382-1.021-.021-2.497.086-3.295.819-.442.406.003 1.117.068 1.614a5.046 5.046 0 0 1-.267 2.408c-.833 2.245-3.361 3.022-4.975 1.104-.801-.952-1.262-2.173-1.605-3.354-.118-.413-.663-.456-1.013-.523-.661-.132-1.313-.305-1.854-.731-1.057-.833-1.343-2.117-1.841-3.291-.505-1.189-2.09-1.297-3-2.157-.646-.611-1.108-1.559-.567-2.392.692-1.067 2.327-1.068 3.43-.893.71.112 1.25.287 1.946-.015.71-.308 1.316-.826 1.907-1.313 1.295-1.037 2.51-1.695 4.158-2.004 2.79-.522 5.306.44 7.441 2.228.568.475 1.057 1.019 1.726 1.36.531.271 1.093.474 1.609.777 1.107.652 1.591 1.704 1.458 2.981-.213 1.962.235-2.261 0 0z"></path><path d="M318.379 388.643c.573-3.885 1.504-7.734 2.371-11.56a664.62 664.62 0 0 1 3.494-14.666c.629-2.513 1.265-5.03 2.083-7.489.424-1.275.863-2.646 1.631-3.764.342-.497.722-.848 1.353-.727.637.122 1.34.262 1.547.954.175.584.145 1.232.107 1.832-.259 3.946-1.484 7.859-2.479 11.666a694.558 694.558 0 0 1-3.262 12.044c-.978 3.49-1.965 6.981-3.077 10.43-.41 1.275-1.208 2.716-.691 4.057.379.985 1.279 1.352 1.948 2.087.689.757 1.029 1.719 1.136 2.724l.003.004a8.46 8.46 0 0 1 .01 1.581 2.53 2.53 0 0 0-.619.693c-1.357-.891-3.208-1.44-4.778-.789-.999-.933-2.402-1.577-3.793-1.43a2.903 2.903 0 0 0-.8.197c-.399.164-.712-.142-1.129-.259a5.236 5.236 0 0 0-2.479-.064c.303-1.007.649-1.809 1.02-2.459h.001c.722-1.28 1.808-2.312 3.291-2.596 1.482-.286 2.854-.734 3.112-2.466.704-4.778-.193 1.29 0 0zm-52.502 21.276c-.732-9.026 6.581-16.027 14.043-19.725 10.316-5.114 22.88-5.933 33.955-3.088 1.18.303 2.349.652 3.502 1.047-.391 2.145-2.229 1.606-3.808 2.426a11.894 11.894 0 0 0-2.477-1.337c-.447-.173-.893-.212-1.199-.583a4.027 4.027 0 0 0-1.197-.974c-1.512-.806-3.846-.634-4.539 1.182-1.721-.775-3.633-.791-4.849-.048-1.551-1.085-4.636-1.661-5.632.482a11.945 11.945 0 0 0-3.33-.279 11.56 11.56 0 0 0-1.845.24 3.972 3.972 0 0 0-1.784-.417c-1.708 0-3.691 1.255-3.447 3.178-1.923.131-3.563.985-4.301 2.24-1.578-.193-3.565.323-4.415 1.784-.26.448-1.571.646-2.089 1.01a5.572 5.572 0 0 0-1.902 2.328 4.439 4.439 0 0 0-.332 1.201c-.078.64-.106.602-.635 1a7.265 7.265 0 0 0-2.093 2.503c-.775 1.53-1.041 3.646.371 4.9-.546 1.247-.387 2.912.871 3.673-.264 2.778.51 7.243 3.301 8.674a1.44 1.44 0 0 0 .025.535c-3.608-3.432-5.851-7.528-6.194-11.952-.032-.395.343 4.424 0 0zm35.235 27.322c-9.204 0-18.502-3.988-25.232-9.833 7.597 4.712 16.75 6.704 25.621 6.643 8.934-.062 18.15-2.223 25.675-7.176-6.739 6.153-16.348 10.366-26.064 10.366zm28.961-18.621l-1.386-.339c.807 1.14 1.9 2.439 1.131 3.899-7.138 6.563-17.31 9.372-26.811 9.706-10.011.351-20.801-1.958-28.84-8.211-.233-.566-.712-.993-.953-1.544-.225-.516-.043-.979.109-1.478l-.517-.153c-1.208-.357-1.941-1.889-2.342-2.958-.662-1.763-.836-3.66-.568-5.517-1.705-.676-1.242-2.089-.655-3.456-3.145-1.753-.065-5.687 2.111-6.807-.43-2.278 1.572-4.539 3.874-4.445l.105-.402c.448-1.712 2.908-1.728 4.26-1.466l.166-.396c.796-1.904 3.313-2.001 5.053-1.949-.393-.857-.795-1.695.004-2.482.927-.913 2.468-.895 3.521-.229 2.057-.496 4.092-.356 6.109.227.185-.995.565-1.589 1.67-1.671 1.227-.092 2.265.471 3.186 1.213l.332-.272c1.585-1.293 3.879-.205 5.373.664.059-.945.095-1.857 1.179-2.172 1.26-.366 2.59.337 3.213 1.439 1.142.298 2.229.75 3.227 1.385-1.955 1.632-2.626 4.272-3.197 6.638 1.677-.681 3.317-1.155 4.895.064l.33-.256c1.341-1.08 3.407.366 4.287 1.386l.374-.213c1.75-1.036 3.868.399 5.204 1.472.174-.797.276-1.438 1.045-1.877.069-.49.092-.99.086-1.484.689.439 1.106 1.025 1.351 1.788 1.168-.155 2.372-.107 3.37.605 1.122.8.932 1.828.006 2.663 1.547 1.979 2.73 4.581 2.389 7.151 1.312 1.994 1.978 5.729-1.143 6.152.258 1.168.435 3.821-1.548 3.325zm.789 1.087c1.644-.277 2.186-2.109 2.015-3.554 2.417-.82 2.355-4.07 1.615-6.014-.276-.725-.592-1.14-.6-1.919a9.332 9.332 0 0 0-.292-2.149 12.064 12.064 0 0 0-1.822-3.992c2.009-2.658-1.895-4.644-4.081-4.503-.343-.659-.912-1.177-1.539-1.563-.56-.345-.593-.339-.764-.974a5.85 5.85 0 0 0-.442-1.157 5.319 5.319 0 0 0-1.32-1.639c-.682-.571-1.375-1.003-1.26-2.021 5.53 2.759 10.824 7.068 13.027 13.022 2.327 6.291.212 12.886-4.265 17.645a4.152 4.152 0 0 0-.272-1.182c.173-.029.151.387 0 0zm4.686-20.869c-2.964-4.724-7.603-8.212-12.552-10.643 2.399-7.348 4.362-14.866 6.334-22.342.992-3.775 2.101-7.583 2.592-11.464.245-1.952.459-4.265-1.888-4.874l-.128.523.01-.555c-1.824-.469-2.73.661-3.466 2.197-1.643 3.38-2.421 7.209-3.328 10.824-1.952 7.806-3.881 15.645-5.375 23.547-11.187-3.764-23.984-3.615-35.033.619-7.999 3.071-16.167 8.916-18.45 17.629-2.421 9.289 3.125 18.567 9.865 24.539 8.073 7.156 19.121 11.305 29.936 10.419 10.601-.875 21.052-6.228 27.899-14.376 6.154-7.348 8.991-17.458 3.584-26.043z"></path></g><!----></svg>